<?xml version="1.0" standalone="no"?>
<!DOCTYPE svg PUBLIC "-//W3C//DTD SVG 20010904//EN"
 "http://www.w3.org/TR/2001/REC-SVG-20010904/DTD/svg10.dtd">
<svg version="1.0" xmlns="http://www.w3.org/2000/svg"
 width="700.000000pt" height="700.000000pt" viewBox="0 0 700.000000 700.000000"
 preserveAspectRatio="xMidYMid meet">
<metadata>
Created by potrace 1.14, written by Peter Selinger 2001-2017
</metadata>
<g transform="translate(0.000000,700.000000) scale(0.100000,-0.100000)"
fill="#000000" stroke="none">
<path d="M3515 6537 c-16 -23 -167 -227 -336 -453 -169 -226 -325 -444 -347
-485 -117 -215 -146 -476 -81 -732 66 -260 181 -434 384 -580 159 -115 467
-330 503 -352 10 -5 19 -12 22 -15 3 -3 111 -79 240 -167 259 -178 312 -221
393 -321 103 -126 143 -225 153 -382 6 -77 4 -90 -18 -136 l-25 -51 36 -23
c20 -13 41 -28 47 -32 7 -5 27 13 55 49 24 32 46 60 49 63 3 3 27 34 55 70 27
36 52 67 55 70 3 3 19 23 36 45 113 147 170 222 181 235 7 8 69 89 139 180 70
91 130 167 133 170 16 13 72 102 98 155 152 307 170 657 49 920 -102 221 -261
378 -651 643 -66 45 -140 96 -165 113 -186 130 -567 391 -620 426 -153 100
-220 163 -266 247 -26 46 -28 61 -28 146 0 71 4 103 18 128 l17 33 -33 30
c-57 51 -60 51 -93 6z"/>
<path d="M2509 4082 c-58 -65 -374 -460 -397 -497 -88 -138 -133 -273 -137
-407 -6 -223 57 -391 198 -529 60 -59 188 -153 442 -324 403 -271 504 -358
520 -446 4 -24 0 -44 -13 -69 l-19 -35 60 -44 60 -45 21 25 c11 14 32 40 46
59 14 18 30 38 35 44 11 12 62 80 178 233 150 198 240 356 262 458 13 56 15
210 4 275 -18 112 -99 257 -199 359 -89 91 -325 262 -545 396 -268 162 -357
234 -395 317 -22 49 -25 86 -9 142 10 35 9 41 -8 53 -10 7 -25 19 -33 26 -49
39 -46 38 -71 9z"/>
<path d="M1750 1120 l-70 -140 507 -2 c440 -3 506 -5 509 -18 2 -8 8 -35 14
-60 13 -49 14 -55 30 -115 6 -22 14 -58 19 -80 5 -22 23 -94 40 -160 17 -66
31 -121 31 -122 0 -2 301 -3 669 -3 l669 0 7 28 c5 15 9 34 11 42 1 8 10 40
18 70 9 30 31 120 51 200 20 80 40 162 46 183 l10 37 504 0 505 0 -70 140 -70
140 -1680 0 -1680 0 -70 -140z"/>
</g>
</svg>
