<svg fill="#000000" xmlns="http://www.w3.org/2000/svg"  viewBox="0 0 50 50" width="50px" height="50px"><path d="M23.027 37.975C25.896 34.223 27 33.122 27 31.022c0-2.87-2.318-4.194-4.194-5.518s-4.967-2.428-3.973-4.304c-.773-.552-.773-.552-.773-.552l-2.318 2.87c0 0-1.747 1.878-1.656 4.084.11 2.649 1.225 3.516 3.532 5.077 3.753 2.538 5.518 3.532 4.525 4.635C23.027 37.975 22.475 37.534 23.027 37.975zM32.124 30l4.875-6.283c0 0 1.692-1.805 1.692-5.189s-2.707-5.415-4.174-6.43S27.635 7.36 27.635 7.36s-1.918-1.015-1.918-2.482c0-1.128.309-1.314.309-1.314L25.35 3l-4.258 5.713c0 0-1.692 1.805-1.692 4.512s1.241 4.851 2.595 5.866c1.354 1.015 7.446 5.189 7.446 5.189s2 1.485 2.256 3.272c.179 1.247.089 1.432-.249 1.996C32.124 30 32.124 30 32.124 30zM29.781 47L20.219 47 19.219 43 12 43 13 41 20.781 41 29.219 41 37 41 38 43 30.781 43z"/></svg>